<svg width="52" height="52" viewBox="0 0 52 52" fill="none" xmlns="http://www.w3.org/2000/svg">
<rect width="52" height="52" rx="12" transform="matrix(-1 0 0 1 52 0)" fill="#424242"/>
<path d="M16 30C16 27.1716 16 25.7574 16.8787 24.8787C17.7574 24 19.1716 24 22 24H30C32.8284 24 34.2426 24 35.1213 24.8787C36 25.7574 36 27.1716 36 30C36 32.8284 36 34.2426 35.1213 35.1213C34.2426 36 32.8284 36 30 36H22C19.1716 36 17.7574 36 16.8787 35.1213C16 34.2426 16 32.8284 16 30Z" fill="#F4F4F5"/>
<path d="M20.75 22C20.75 19.1005 23.1005 16.75 26 16.75C28.8995 16.75 31.25 19.1005 31.25 22V24.0036C31.8174 24.0089 32.3135 24.022 32.75 24.0546V22C32.75 18.2721 29.7279 15.25 26 15.25C22.2721 15.25 19.25 18.2721 19.25 22V24.0546C19.6865 24.022 20.1826 24.0089 20.75 24.0036V22Z" fill="#F4F4F5"/>
</svg>
