<svg width="25" height="24" viewBox="0 0 25 24" fill="none" xmlns="http://www.w3.org/2000/svg">
<path opacity="0.5" d="M2.5 16C2.5 13.1716 2.5 11.7574 3.37868 10.8787C4.25736 10 5.67157 10 8.5 10H16.5C19.3284 10 20.7426 10 21.6213 10.8787C22.5 11.7574 22.5 13.1716 22.5 16C22.5 18.8284 22.5 20.2426 21.6213 21.1213C20.7426 22 19.3284 22 16.5 22H8.5C5.67157 22 4.25736 22 3.37868 21.1213C2.5 20.2426 2.5 18.8284 2.5 16Z" fill="#1D1D1D"/>
<path d="M7.25 8C7.25 5.10051 9.60051 2.75 12.5 2.75C15.3995 2.75 17.75 5.10051 17.75 8V10.0036C18.3174 10.0089 18.8135 10.022 19.25 10.0546V8C19.25 4.27208 16.2279 1.25 12.5 1.25C8.77208 1.25 5.75 4.27208 5.75 8V10.0546C6.18651 10.022 6.68264 10.0089 7.25 10.0036V8Z" fill="#1D1D1D"/>
</svg>
